<svg width="260" height="254" viewBox="0 0 260 260" fill="none" xmlns="http://www.w3.org/2000/svg">
<path fill-rule="evenodd" clip-rule="evenodd" d="M130 0C58.175 0 0 58.175 0 130C0 187.525 37.2125 236.113 88.8875 253.338C95.3875 254.475 97.825 250.575 97.825 247.163C97.825 244.075 97.6625 233.838 97.6625 222.95C65 228.963 56.55 214.988 53.95 207.675C52.4875 203.938 46.15 192.4 40.625 189.312C36.075 186.875 29.575 180.863 40.4625 180.7C50.7 180.537 58.0125 190.125 60.45 194.025C72.15 213.688 90.8375 208.163 98.3125 204.75C99.45 196.3 102.862 190.613 106.6 187.363C77.675 184.113 47.45 172.9 47.45 123.175C47.45 109.037 52.4875 97.3375 60.775 88.2375C59.475 84.9875 54.925 71.6625 62.075 53.7875C62.075 53.7875 72.9625 50.375 97.825 67.1125C108.225 64.1875 119.275 62.725 130.325 62.725C141.375 62.725 152.425 64.1875 162.825 67.1125C187.688 50.2125 198.575 53.7875 198.575 53.7875C205.725 71.6625 201.175 84.9875 199.875 88.2375C208.163 97.3375 213.2 108.875 213.2 123.175C213.2 173.062 182.812 184.113 153.887 187.363C158.6 191.425 162.663 199.225 162.663 211.413C162.663 228.8 162.5 242.775 162.5 247.163C162.5 250.575 164.938 254.637 171.438 253.338C222.788 236.113 260 187.363 260 130C260 58.175 201.825 0 130 0Z" fill="white"/>
</svg>
