<svg width="260" height="260" viewBox="0 0 260 260" fill="none" xmlns="http://www.w3.org/2000/svg">
<path d="M130.054 260.108C201.881 260.108 260.108 201.881 260.108 130.054C260.108 58.2272 201.881 0 130.054 0C58.2272 0 0 58.2272 0 130.054C0 201.881 58.2272 260.108 130.054 260.108Z" fill="url(#paint0_linear_307_161)"/>
<path fill-rule="evenodd" clip-rule="evenodd" d="M58.8005 128.646C96.7014 112.187 121.933 101.249 134.602 95.9433C170.662 80.8913 178.242 78.2924 183.115 78.1841C184.198 78.1841 186.581 78.4007 188.205 79.7001C189.504 80.783 189.829 82.1908 190.046 83.2736C190.262 84.3565 190.479 86.6306 190.262 88.3632C188.313 108.938 179.867 158.859 175.535 181.816C173.694 191.562 170.121 194.81 166.656 195.135C159.075 195.785 153.336 190.154 146.081 185.389C134.602 177.918 128.213 173.261 117.06 165.898C104.173 157.451 112.512 152.795 119.875 145.214C121.824 143.265 155.069 112.945 155.719 110.237C155.827 109.913 155.827 108.613 155.069 107.963C154.311 107.314 153.228 107.53 152.362 107.747C151.17 107.963 132.978 120.092 97.5677 144.023C92.3699 147.597 87.7135 149.329 83.4903 149.221C78.8339 149.113 69.9542 146.622 63.2404 144.456C55.1188 141.858 48.6215 140.45 49.1629 135.902C49.4878 133.519 52.7364 131.137 58.8005 128.646Z" fill="white"/>
<defs>
<linearGradient id="paint0_linear_307_161" x1="129.946" y1="0" x2="129.946" y2="258.051" gradientUnits="userSpaceOnUse">
<stop stop-color="#2AABEE"/>
<stop offset="1" stop-color="#229ED9"/>
</linearGradient>
</defs>
</svg>
